<?xml version="1.0" encoding="UTF-8"?>
<svg width="300px" height="52px" viewBox="0 0 312 43" version="1.1" xmlns="http://www.w3.org/2000/svg" xmlns:xlink="http://www.w3.org/1999/xlink">
    <title>ContactManagerLoginAppLogo</title>
    <defs>
        <polygon id="path-1" points="0 0.211 23.3779 0.211 23.3779 27.7749 0 27.7749"></polygon>
        <polygon id="path-3" points="0.1823 0.0493 19.696 0.0493 19.696 9.4413 0.1823 9.4413"></polygon>
    </defs>
    <g id="ContactManagerLoginAppLogo" stroke="none" stroke-width="1" fill="none" fill-rule="evenodd">
        <g id="Page-1" transform="translate(3.000000, 3.000000)">
            <g id="Group-3" transform="translate(0.000000, 0.789000)">
                <mask id="mask-2" fill="white">
                    <use xlink:href="#path-1"></use>
                </mask>
                <g id="Clip-2"></g>
                <path d="M23.3779,22.9589 C21.6369,25.6629 18.0059,27.7749 13.6709,27.7749 C5.8539,27.7749 -0.0001,21.9589 -0.0001,13.9929 C-0.0001,6.0279 5.8539,0.2109 13.6709,0.2109 C16.9309,0.2109 20.4509,1.4339 22.7479,4.3599 L20.4139,6.1019 C19.3759,4.3969 16.4489,2.6559 13.6709,2.6559 C6.9279,2.6559 2.8899,7.9539 2.8899,13.9929 C2.8899,20.0319 6.9279,25.3299 13.6709,25.3299 C16.4119,25.3299 19.2289,24.4409 21.1909,21.4029 L23.3779,22.9589 Z" id="Fill-1" fill="#006D9A" mask="url(#mask-2)"></path>
            </g>
            <path d="M36.0156,12.3367 C32.0136,12.3367 29.4946,15.3377 29.4946,19.2287 C29.4946,23.1177 32.0136,26.1187 36.0156,26.1187 C40.0536,26.1187 42.5726,23.1177 42.5726,19.2287 C42.5726,15.3377 40.0536,12.3367 36.0156,12.3367 M36.0156,28.3417 C30.6436,28.3417 26.8276,24.4517 26.8276,19.2287 C26.8276,14.0037 30.6436,10.1137 36.0156,10.1137 C41.4236,10.1137 45.2406,14.0037 45.2406,19.2287 C45.2406,24.4517 41.4236,28.3417 36.0156,28.3417" id="Fill-4" fill="#006D9A"></path>
            <path d="M52.7646,10.5584 C52.8746,11.4854 52.8746,12.4114 52.8746,13.3374 L52.9496,13.3374 C54.0236,11.4484 56.4686,10.1144 58.7656,10.1144 C63.1746,10.1144 65.2856,12.5964 65.2856,16.8944 L65.2856,27.8974 L62.8416,27.8974 L62.8416,18.3014 C62.8416,14.4494 61.7666,12.3364 58.1366,12.3364 C57.6176,12.3364 52.8746,12.6704 52.8746,19.0054 L52.8746,27.8974 L50.4296,27.8974 L50.4296,14.3744 C50.4296,13.4484 50.3196,11.8184 50.2446,10.5584 L52.7646,10.5584 Z" id="Fill-6" fill="#006D9A"></path>
            <path d="M80.7392,12.7811 L75.7382,12.7811 L75.7382,23.0071 C75.7382,25.6001 76.7382,26.1191 78.2582,26.1191 C79.1092,26.1191 80.0362,25.8591 80.7762,25.4521 L80.8872,27.7121 C79.9992,28.1201 78.8132,28.3421 77.5912,28.3421 C75.7382,28.3421 73.2932,27.5271 73.2932,23.7111 L73.2932,12.7811 L69.6252,12.7811 L69.6252,10.5581 L73.2932,10.5581 L73.2932,5.6681 L75.7382,5.6681 L75.7382,10.5581 L80.7392,10.5581 L80.7392,12.7811 Z" id="Fill-8" fill="#006D9A"></path>
            <path d="M94.6719,19.2654 C92.1899,19.2654 86.5959,19.4504 86.5959,22.9324 C86.5959,25.2304 88.7069,26.1194 90.6709,26.1194 C94.2279,26.1194 95.9319,23.5994 95.9319,20.5244 L95.9319,19.2654 L94.6719,19.2654 Z M95.9319,17.2644 L95.9319,16.8204 C95.9319,13.8194 94.4859,12.3364 91.4849,12.3364 C89.4479,12.3364 87.6699,13.0404 86.1879,14.3744 L84.7059,12.6334 C86.2989,11.0034 88.7809,10.1144 92.0409,10.1144 C95.4499,10.1144 98.3769,12.0404 98.3769,16.2644 L98.3769,24.0074 C98.3769,25.3404 98.5249,26.9714 98.6729,27.8974 L96.3019,27.8974 C96.1529,27.0444 96.0799,26.0074 96.0799,25.0814 L96.0059,25.0814 C94.5979,27.3784 92.6709,28.3414 89.8929,28.3414 C86.8179,28.3414 83.9279,26.6374 83.9279,23.2664 C83.9279,17.6344 90.5599,17.2644 94.7089,17.2644 L95.9319,17.2644 Z" id="Fill-10" fill="#006D9A"></path>
            <path d="M117.4228,14.6336 C116.6088,13.3746 115.0148,12.3366 113.0878,12.3366 C109.0498,12.2626 106.5688,15.2636 106.5688,19.2286 C106.5688,23.1926 109.0498,26.1936 113.0878,26.1186 C115.0148,26.1186 116.6088,25.0816 117.4228,23.8216 L119.4238,25.3406 C117.7198,27.3416 115.4228,28.3046 113.0878,28.3416 C107.4198,28.4156 103.9008,24.4516 103.9008,19.2286 C103.9008,14.0036 107.4198,10.0396 113.0878,10.1136 C115.4228,10.1516 117.7198,11.1136 119.4238,13.1146 L117.4228,14.6336 Z" id="Fill-12" fill="#006D9A"></path>
            <path d="M132.3555,12.7811 L127.3545,12.7811 L127.3545,23.0071 C127.3545,25.6001 128.3545,26.1191 129.8745,26.1191 C130.7255,26.1191 131.6525,25.8591 132.3925,25.4521 L132.5035,27.7121 C131.6155,28.1201 130.4295,28.3421 129.2075,28.3421 C127.3545,28.3421 124.9095,27.5271 124.9095,23.7111 L124.9095,12.7811 L121.2415,12.7811 L121.2415,10.5581 L124.9095,10.5581 L124.9095,5.6681 L127.3545,5.6681 L127.3545,10.5581 L132.3555,10.5581 L132.3555,12.7811 Z" id="Fill-14" fill="#006D9A"></path>
            <polygon id="Fill-16" fill="#006D9A" points="150.2519 23.0067 159.1059 1.6667 163.1819 1.6667 163.1819 27.8977 160.5149 27.8977 160.5149 5.2237 160.4399 5.2237 150.9559 27.8977 149.5479 27.8977 140.0639 5.2237 139.9899 5.2237 139.9899 27.8977 137.3219 27.8977 137.3219 1.6667 141.3979 1.6667"></polygon>
            <path d="M180.0078,19.2654 C177.5258,19.2654 171.9318,19.4504 171.9318,22.9324 C171.9318,25.2304 174.0428,26.1194 176.0068,26.1194 C179.5638,26.1194 181.2678,23.5994 181.2678,20.5244 L181.2678,19.2654 L180.0078,19.2654 Z M181.2678,17.2644 L181.2678,16.8204 C181.2678,13.8194 179.8218,12.3364 176.8208,12.3364 C174.7838,12.3364 173.0058,13.0404 171.5238,14.3744 L170.0418,12.6334 C171.6348,11.0034 174.1168,10.1144 177.3768,10.1144 C180.7858,10.1144 183.7128,12.0404 183.7128,16.2644 L183.7128,24.0074 C183.7128,25.3404 183.8608,26.9714 184.0088,27.8974 L181.6378,27.8974 C181.4888,27.0444 181.4158,26.0074 181.4158,25.0814 L181.3418,25.0814 C179.9338,27.3784 178.0068,28.3414 175.2288,28.3414 C172.1538,28.3414 169.2638,26.6374 169.2638,23.2664 C169.2638,17.6344 175.8958,17.2644 180.0448,17.2644 L181.2678,17.2644 Z" id="Fill-18" fill="#006D9A"></path>
            <path d="M192.4599,10.5584 C192.5699,11.4854 192.5699,12.4114 192.5699,13.3374 L192.6449,13.3374 C193.7189,11.4484 196.1639,10.1144 198.4609,10.1144 C202.8699,10.1144 204.9809,12.5964 204.9809,16.8944 L204.9809,27.8974 L202.5369,27.8974 L202.5369,18.3014 C202.5369,14.4494 201.4619,12.3364 197.8319,12.3364 C197.3129,12.3364 192.5699,12.6704 192.5699,19.0054 L192.5699,27.8974 L190.1249,27.8974 L190.1249,14.3744 C190.1249,13.4484 190.0149,11.8184 189.9399,10.5584 L192.4599,10.5584 Z" id="Fill-20" fill="#006D9A"></path>
            <path d="M221.3242,19.2654 C218.8422,19.2654 213.2482,19.4504 213.2482,22.9324 C213.2482,25.2304 215.3592,26.1194 217.3232,26.1194 C220.8802,26.1194 222.5842,23.5994 222.5842,20.5244 L222.5842,19.2654 L221.3242,19.2654 Z M222.5842,17.2644 L222.5842,16.8204 C222.5842,13.8194 221.1382,12.3364 218.1372,12.3364 C216.1002,12.3364 214.3222,13.0404 212.8402,14.3744 L211.3582,12.6334 C212.9512,11.0034 215.4332,10.1144 218.6932,10.1144 C222.1022,10.1144 225.0292,12.0404 225.0292,16.2644 L225.0292,24.0074 C225.0292,25.3404 225.1772,26.9714 225.3252,27.8974 L222.9542,27.8974 C222.8052,27.0444 222.7322,26.0074 222.7322,25.0814 L222.6582,25.0814 C221.2502,27.3784 219.3232,28.3414 216.5452,28.3414 C213.4702,28.3414 210.5802,26.6374 210.5802,23.2664 C210.5802,17.6344 217.2122,17.2644 221.3612,17.2644 L222.5842,17.2644 Z" id="Fill-22" fill="#006D9A"></path>
            <path d="M239.666,25.6746 C243.223,25.6746 246.371,23.0066 246.224,19.0056 C246.224,15.3746 243.741,12.3366 239.666,12.3366 C236.035,12.3366 233.219,15.3746 233.219,19.0056 C233.219,22.6366 236.035,25.6746 239.666,25.6746 Z M232.774,31.3796 C234.22,33.3066 236.628,34.5666 239.406,34.5666 C244.371,34.5666 246.149,31.4906 246.149,27.7486 L246.149,24.6366 L246.075,24.6366 C244.519,26.9716 242.111,27.8976 239.592,27.8976 C234.59,27.8976 230.552,24.1546 230.552,19.0796 C230.552,14.0406 234.257,10.1136 239.369,10.1136 C241.444,10.1136 244.074,10.7436 246.075,13.4476 L246.149,13.4476 L246.149,10.5586 L248.595,10.5586 L248.595,27.7486 C248.595,31.5286 247.075,36.7886 239.295,36.7886 C235.85,36.7886 233.183,35.6776 230.959,33.3066 L232.774,31.3796 Z" id="Fill-24" fill="#006D9A"></path>
            <path d="M268.3086,17.8943 C268.3086,14.5963 266.1966,12.3363 262.6766,12.3363 C259.4916,12.3363 256.6016,15.0413 256.6016,17.8943 L268.3086,17.8943 Z M256.5276,19.8943 C256.8236,23.3773 259.4546,26.1193 262.8996,26.1193 C265.4926,26.1193 267.4936,24.6733 268.4566,23.1183 L270.3456,24.6733 C268.3086,27.2673 265.7516,28.3413 262.8996,28.3413 C257.7496,28.3413 253.9336,24.4523 253.9336,19.2283 C253.9336,14.0033 257.7496,10.1143 262.6766,10.1143 C267.9376,10.1513 270.9756,14.0403 270.9756,18.7833 L270.9756,19.8943 L256.5276,19.8943 Z" id="Fill-26" fill="#006D9A"></path>
            <path d="M276.4248,15.9676 C276.4248,14.4116 276.3508,13.0776 276.2768,10.5586 L278.6848,10.5586 L278.6848,13.7816 L278.7588,13.7816 C279.4628,11.9296 281.2788,10.1136 284.3168,10.1136 C285.0208,10.1136 285.6128,10.1886 286.1318,10.3366 L285.6508,12.7446 C285.3538,12.6336 284.9088,12.5596 284.2418,12.5596 C280.5368,12.5596 278.8698,15.7816 278.8698,18.1166 L278.8698,27.8976 L276.4248,27.8976 L276.4248,15.9676 Z" id="Fill-28" fill="#006D9A"></path>
            <g id="Group-32" transform="translate(288.000000, 1.789000)">
                <mask id="mask-4" fill="white">
                    <use xlink:href="#path-3"></use>
                </mask>
                <g id="Clip-31"></g>
                <path d="M19.6963,9.4413 L18.3283,9.4413 L18.3283,1.5533 L18.2833,1.5533 L15.1143,9.4413 L14.2243,9.4413 L11.0563,1.5533 L11.0103,1.5533 L11.0103,9.4413 L9.6423,9.4413 L9.6423,0.0493 L11.7623,0.0493 L14.7043,7.2533 L17.6443,0.0493 L19.6963,0.0493 L19.6963,9.4413 Z M7.6823,1.2803 L4.6503,1.2803 L4.6503,9.4413 L3.2833,9.4413 L3.2833,1.2803 L0.1823,1.2803 L0.1823,0.0493 L7.6823,0.0493 L7.6823,1.2803 Z" id="Fill-30" fill="#006D9A" mask="url(#mask-4)"></path>
            </g>
        </g>
    </g>
</svg>
