<svg id="Layer_1" data-name="Layer 1" xmlns="http://www.w3.org/2000/svg" width="184.03" height="23.31" viewBox="0 0 184.03 23.31"><title>CM_Logotype_App</title><path d="M46.1,16.41a5.6,5.6,0,0,1-4.71,2.34,6.48,6.48,0,0,1-6.63-6.69,6.48,6.48,0,0,1,6.63-6.69,5.55,5.55,0,0,1,4.41,2l-1.13.84a4.25,4.25,0,0,0-3.28-1.67,5.2,5.2,0,0,0-5.23,5.5,5.2,5.2,0,0,0,5.23,5.5A4.08,4.08,0,0,0,45,15.66Z" fill="#006d9a"/><path d="M52.23,9.8a4.29,4.29,0,0,0-4.45,4.42,4.47,4.47,0,0,0,8.93,0A4.3,4.3,0,0,0,52.23,9.8Zm0,7.76a3.12,3.12,0,0,1-3.16-3.34,3.17,3.17,0,1,1,6.34,0A3.12,3.12,0,0,1,52.23,17.56Z" fill="#006d9a"/><path d="M60.36,10a12.18,12.18,0,0,1,0,1.35h0A3.38,3.38,0,0,1,63.27,9.8c2.14,0,3.16,1.2,3.16,3.29v5.33H65.25V13.77c0-1.87-.52-2.9-2.29-2.9-.25,0-2.55.17-2.55,3.24v4.31H59.23V11.86c0-.45-.06-1.24-.09-1.85Z" fill="#006d9a"/><path d="M73.93,11.09H71.5v5c0,1.26.49,1.51,1.23,1.51A2.74,2.74,0,0,0,74,17.24l0,1.09a3.94,3.94,0,0,1-1.6.31,2,2,0,0,1-2.08-2.25v-5.3H68.54V10h1.78V7.64H71.5V10h2.43Z" fill="#006d9a"/><path d="M82.48,16.54V12.78a2.81,2.81,0,0,0-3.07-3A4.84,4.84,0,0,0,75.85,11l.72.84a3.77,3.77,0,0,1,2.57-1,1.91,1.91,0,0,1,2.16,2.18v.21h-.59c-2,0-5.23.18-5.23,2.92,0,1.63,1.4,2.46,2.89,2.46a3.14,3.14,0,0,0,3-1.58h0a8.51,8.51,0,0,0,.11,1.36h1.15A13.91,13.91,0,0,1,82.48,16.54ZM81.3,14.85a2.46,2.46,0,0,1-2.55,2.71c-1,0-2-.43-2-1.55,0-1.69,2.71-1.77,3.92-1.77h.61Z" fill="#006d9a"/><path d="M91.72,12a2.51,2.51,0,0,0-2.1-1.12,3.07,3.07,0,0,0-3.16,3.35,3.06,3.06,0,0,0,3.16,3.34,2.5,2.5,0,0,0,2.1-1.11l1,.73a4.07,4.07,0,0,1-3.07,1.46,4.2,4.2,0,0,1-4.46-4.42A4.19,4.19,0,0,1,89.62,9.8a4,4,0,0,1,3.07,1.45Z" fill="#006d9a"/><path d="M99,11.09H96.54v5c0,1.26.49,1.51,1.22,1.51A2.74,2.74,0,0,0,99,17.24L99,18.33a3.94,3.94,0,0,1-1.6.31,2,2,0,0,1-2.08-2.25v-5.3H93.58V10h1.78V7.64h1.18V10H99Z" fill="#006d9a"/><polygon points="107.65 16.05 111.94 5.7 113.92 5.7 113.92 18.42 112.63 18.42 112.63 7.42 112.59 7.42 107.99 18.42 107.31 18.42 102.71 7.42 102.67 7.42 102.67 18.42 101.38 18.42 101.38 5.7 103.35 5.7 107.65 16.05" fill="#006d9a"/><path d="M123.88,16.54V12.78a2.82,2.82,0,0,0-3.07-3A4.82,4.82,0,0,0,117.25,11l.72.84a3.77,3.77,0,0,1,2.57-1,1.91,1.91,0,0,1,2.16,2.18v.21h-.6c-2,0-5.23.18-5.23,2.92,0,1.63,1.4,2.46,2.9,2.46a3.15,3.15,0,0,0,3-1.58h0a8.53,8.53,0,0,0,.1,1.36H124A14.06,14.06,0,0,1,123.88,16.54Zm-1.18-1.69a2.46,2.46,0,0,1-2.56,2.71c-1,0-2-.43-2-1.55,0-1.69,2.71-1.77,3.91-1.77h.62Z" fill="#006d9a"/><path d="M128.12,10a10.17,10.17,0,0,1,.06,1.35h0A3.4,3.4,0,0,1,131,9.8c2.13,0,3.16,1.2,3.16,3.29v5.33H133V13.77c0-1.87-.52-2.9-2.28-2.9-.25,0-2.55.17-2.55,3.24v4.31H127V11.86c0-.45,0-1.24-.09-1.85Z" fill="#006d9a"/><path d="M143.92,16.54V12.78a2.82,2.82,0,0,0-3.07-3A4.82,4.82,0,0,0,137.29,11l.72.84a3.77,3.77,0,0,1,2.57-1,1.91,1.91,0,0,1,2.16,2.18v.21h-.6c-2,0-5.23.18-5.23,2.92,0,1.63,1.41,2.46,2.9,2.46a3.14,3.14,0,0,0,3-1.58h0a8.51,8.51,0,0,0,.11,1.36h1.15A13.91,13.91,0,0,1,143.92,16.54Zm-1.18-1.69a2.46,2.46,0,0,1-2.55,2.71c-1,0-2-.43-2-1.55,0-1.69,2.71-1.77,3.92-1.77h.61Z" fill="#006d9a"/><path d="M154.17,10v1.4h0a3.86,3.86,0,0,0-3.25-1.61,4.21,4.21,0,0,0-4.28,4.35A4.26,4.26,0,0,0,151,18.42a3.6,3.6,0,0,0,3.14-1.58h0v1.51c0,1.82-.86,3.31-3.27,3.31a4,4,0,0,1-3.22-1.55l-.88.94a5.2,5.2,0,0,0,4,1.69c3.78,0,4.52-2.56,4.52-4.39V10ZM151,17.34a3.24,3.24,0,0,1,0-6.47,3.1,3.1,0,0,1,3.19,3.24A3.09,3.09,0,0,1,151,17.34Z" fill="#006d9a"/><path d="M166.21,14a3.93,3.93,0,0,0-4-4.2A4.24,4.24,0,0,0,158,14.22a4.27,4.27,0,0,0,4.34,4.42,4.39,4.39,0,0,0,3.62-1.78L165,16.1a3.14,3.14,0,0,1-5.79-1.56h7Zm-7-.43a3,3,0,0,1,2.95-2.7,2.54,2.54,0,0,1,2.73,2.7Z" fill="#006d9a"/><path d="M168.86,12.64c0-.76,0-1.41-.08-2.63H170v1.57h0a2.76,2.76,0,0,1,2.69-1.78,3.23,3.23,0,0,1,.88.1l-.23,1.17a2.08,2.08,0,0,0-.68-.09,2.64,2.64,0,0,0-2.61,2.7v4.74h-1.18Z" fill="#006d9a"/><polygon points="178.2 6.38 176.73 6.38 176.73 10.34 176.06 10.34 176.06 6.38 174.56 6.38 174.56 5.78 178.2 5.78 178.2 6.38" fill="#006d9a"/><polygon points="184.03 10.34 183.36 10.34 183.36 6.51 183.34 6.51 181.8 10.34 181.37 10.34 179.84 6.51 179.81 6.51 179.81 10.34 179.15 10.34 179.15 5.78 180.18 5.78 181.6 9.28 183.03 5.78 184.03 5.78 184.03 10.34" fill="#006d9a"/><polygon points="0 0 0 4.66 0 18.65 0 23.31 4.76 23.31 14.28 23.31 14.28 18.65 4.76 18.65 4.76 4.66 23.8 4.66 23.8 0 0 0" fill="#006d9a" fill-rule="evenodd"/><polygon points="9.52 9.32 9.52 13.99 19.05 13.99 19.05 23.31 23.8 23.31 23.8 13.99 23.8 9.32 9.52 9.32" fill="#006d9a" fill-rule="evenodd"/></svg>